<svg width="31" height="30" viewBox="0 0 31 30" fill="none" xmlns="http://www.w3.org/2000/svg">
<path d="M26.65 13.475V10C26.65 7.9375 24.9625 6.25 22.9 6.25H17.9C16.9375 6.25 16.0625 6.625 15.4 7.225C14.7375 6.625 13.8625 6.25 12.9 6.25H7.90002C5.83752 6.25 4.15002 7.9375 4.15002 10V13.475C3.38752 14.1625 2.90002 15.15 2.90002 16.25V23.75H5.40002V21.25H25.4V23.75H27.9V16.25C27.9 15.15 27.4125 14.1625 26.65 13.475ZM17.9 8.75H22.9C23.5875 8.75 24.15 9.3125 24.15 10V12.5H16.65V10C16.65 9.3125 17.2125 8.75 17.9 8.75ZM6.65002 10C6.65002 9.3125 7.21252 8.75 7.90002 8.75H12.9C13.5875 8.75 14.15 9.3125 14.15 10V12.5H6.65002V10ZM5.40002 18.75V16.25C5.40002 15.5625 5.96252 15 6.65002 15H24.15C24.8375 15 25.4 15.5625 25.4 16.25V18.75H5.40002Z" fill="#430702"/>
</svg>
