<svg width="31" height="30" viewBox="0 0 31 30" fill="none" xmlns="http://www.w3.org/2000/svg">
<path d="M6.45007 26.25C6.09591 26.25 5.79924 26.13 5.56007 25.89C5.32091 25.65 5.20091 25.3533 5.20007 25V23.75C4.15841 23.75 3.27299 23.3854 2.54382 22.6562C1.81466 21.9271 1.45007 21.0417 1.45007 20V13.75C1.45007 12.7083 1.81466 11.8229 2.54382 11.0938C3.27299 10.3646 4.15841 10 5.20007 10V7.5C5.20007 6.45833 5.56466 5.57292 6.29382 4.84375C7.02299 4.11458 7.90841 3.75 8.95007 3.75H21.4501C22.4917 3.75 23.3772 4.11458 24.1063 4.84375C24.8355 5.57292 25.2001 6.45833 25.2001 7.5V10C26.2417 10 27.1272 10.3646 27.8563 11.0938C28.5855 11.8229 28.9501 12.7083 28.9501 13.75V20C28.9501 21.0417 28.5855 21.9271 27.8563 22.6562C27.1272 23.3854 26.2417 23.75 25.2001 23.75V25C25.2001 25.3542 25.0801 25.6512 24.8401 25.8912C24.6001 26.1312 24.3034 26.2508 23.9501 26.25C23.5967 26.2492 23.3001 26.1292 23.0601 25.89C22.8201 25.6508 22.7001 25.3542 22.7001 25V23.75H7.70007V25C7.70007 25.3542 7.58007 25.6512 7.34007 25.8912C7.10007 26.1312 6.80341 26.2508 6.45007 26.25ZM5.20007 21.25H25.2001C25.5542 21.25 25.8513 21.13 26.0913 20.89C26.3313 20.65 26.4509 20.3533 26.4501 20V13.75C26.4501 13.3958 26.3301 13.0992 26.0901 12.86C25.8501 12.6208 25.5534 12.5008 25.2001 12.5C24.8467 12.4992 24.5501 12.6192 24.3101 12.86C24.0701 13.1008 23.9501 13.3975 23.9501 13.75V18.75H6.45007V13.75C6.45007 13.3958 6.33007 13.0992 6.09007 12.86C5.85007 12.6208 5.55341 12.5008 5.20007 12.5C4.84674 12.4992 4.55007 12.6192 4.31007 12.86C4.07007 13.1008 3.95007 13.3975 3.95007 13.75V20C3.95007 20.3542 4.07007 20.6512 4.31007 20.8912C4.55007 21.1312 4.84674 21.2508 5.20007 21.25ZM8.95007 16.25H21.4501V13.75C21.4501 13.1875 21.5647 12.6771 21.7938 12.2187C22.023 11.7604 22.3251 11.3542 22.7001 11V7.5C22.7001 7.14583 22.5801 6.84917 22.3401 6.61C22.1001 6.37083 21.8034 6.25083 21.4501 6.25H8.95007C8.59591 6.25 8.29924 6.37 8.06007 6.61C7.82091 6.85 7.70091 7.14667 7.70007 7.5V11C8.07507 11.3542 8.37716 11.7604 8.60632 12.2187C8.83549 12.6771 8.95007 13.1875 8.95007 13.75V16.25Z" fill="#430702"/>
</svg>
