<svg width="31" height="30" viewBox="0 0 31 30" fill="none" xmlns="http://www.w3.org/2000/svg">
<g clip-path="url(#clip0_10_243)">
<path d="M29.8623 7.5H1.7373C1.48866 7.5 1.25021 7.59877 1.07439 7.77459C0.898577 7.9504 0.799805 8.18886 0.799805 8.4375C0.799805 8.68614 0.898577 8.9246 1.07439 9.10041C1.25021 9.27623 1.48866 9.375 1.7373 9.375H2.6748V22.5C2.6748 22.7486 2.77358 22.9871 2.94939 23.1629C3.12521 23.3387 3.36366 23.4375 3.6123 23.4375C3.86095 23.4375 4.0994 23.3387 4.27522 23.1629C4.45103 22.9871 4.5498 22.7486 4.5498 22.5V16.875H27.0498V22.5C27.0498 22.7486 27.1486 22.9871 27.3244 23.1629C27.5002 23.3387 27.7387 23.4375 27.9873 23.4375C28.2359 23.4375 28.4744 23.3387 28.6502 23.1629C28.826 22.9871 28.9248 22.7486 28.9248 22.5V9.375H29.8623C30.1109 9.375 30.3494 9.27623 30.5252 9.10041C30.701 8.9246 30.7998 8.68614 30.7998 8.4375C30.7998 8.18886 30.701 7.9504 30.5252 7.77459C30.3494 7.59877 30.1109 7.5 29.8623 7.5ZM4.5498 9.375H14.8623V15H4.5498V9.375ZM27.0498 15H16.7373V9.375H27.0498V15ZM12.0498 12.1875C12.0498 12.4361 11.951 12.6746 11.7752 12.8504C11.5994 13.0262 11.3609 13.125 11.1123 13.125H8.2998C8.05116 13.125 7.81271 13.0262 7.63689 12.8504C7.46108 12.6746 7.3623 12.4361 7.3623 12.1875C7.3623 11.9389 7.46108 11.7004 7.63689 11.5246C7.81271 11.3488 8.05116 11.25 8.2998 11.25H11.1123C11.3609 11.25 11.5994 11.3488 11.7752 11.5246C11.951 11.7004 12.0498 11.9389 12.0498 12.1875ZM19.5498 12.1875C19.5498 11.9389 19.6486 11.7004 19.8244 11.5246C20.0002 11.3488 20.2387 11.25 20.4873 11.25H23.2998C23.5484 11.25 23.7869 11.3488 23.9627 11.5246C24.1385 11.7004 24.2373 11.9389 24.2373 12.1875C24.2373 12.4361 24.1385 12.6746 23.9627 12.8504C23.7869 13.0262 23.5484 13.125 23.2998 13.125H20.4873C20.2387 13.125 20.0002 13.0262 19.8244 12.8504C19.6486 12.6746 19.5498 12.4361 19.5498 12.1875Z" fill="#430702"/>
</g>
<defs>
<clipPath id="clip0_10_243">
<rect width="30" height="30" fill="white" transform="translate(0.799805)"/>
</clipPath>
</defs>
</svg>
