<svg width="31" height="30" viewBox="0 0 31 30" fill="none" xmlns="http://www.w3.org/2000/svg">
<path fill-rule="evenodd" clip-rule="evenodd" d="M5.15342 3.48214C5.15342 3.03857 5.51342 2.67857 5.957 2.67857H14.2606V27.3214H5.957C5.74388 27.3214 5.53948 27.2368 5.38879 27.0861C5.23809 26.9354 5.15342 26.731 5.15342 26.5179V3.48214ZM16.9391 27.3214V2.67857H25.2427C25.6863 2.67857 26.0463 3.03857 26.0463 3.48214V26.5179C26.0463 26.731 25.9616 26.9354 25.8109 27.0861C25.6602 27.2368 25.4558 27.3214 25.2427 27.3214H16.9391ZM15.5999 30H5.957C5.49971 30 5.04691 29.9099 4.62444 29.7349C4.20196 29.5599 3.8181 29.3035 3.49475 28.9801C3.1714 28.6568 2.91491 28.2729 2.73992 27.8504C2.56492 27.4279 2.47485 26.9751 2.47485 26.5179V3.48214C2.47485 1.56 4.03485 0 5.957 0H25.2427C27.167 0 28.7249 1.56 28.7249 3.48214V26.5179C28.7249 28.4421 27.167 30 25.2427 30H15.5999ZM20.957 12.3214C21.3832 12.3214 21.792 12.4908 22.0934 12.7921C22.3948 13.0935 22.5641 13.5023 22.5641 13.9286V16.0714C22.5641 16.4977 22.3948 16.9065 22.0934 17.2078C21.792 17.5092 21.3832 17.6786 20.957 17.6786C20.5308 17.6786 20.122 17.5092 19.8206 17.2078C19.5192 16.9065 19.3499 16.4977 19.3499 16.0714V13.9286C19.3499 13.5023 19.5192 13.0935 19.8206 12.7921C20.122 12.4908 20.5308 12.3214 20.957 12.3214ZM11.8499 13.9286C11.8499 13.5023 11.6805 13.0935 11.3791 12.7921C11.0777 12.4908 10.669 12.3214 10.2427 12.3214C9.81647 12.3214 9.40769 12.4908 9.10629 12.7921C8.80489 13.0935 8.63557 13.5023 8.63557 13.9286V16.0714C8.63557 16.4977 8.80489 16.9065 9.10629 17.2078C9.40769 17.5092 9.81647 17.6786 10.2427 17.6786C10.669 17.6786 11.0777 17.5092 11.3791 17.2078C11.6805 16.9065 11.8499 16.4977 11.8499 16.0714V13.9286Z" fill="#430702"/>
</svg>
