<svg width="30" height="30" viewBox="0 0 30 30" fill="none" xmlns="http://www.w3.org/2000/svg">
<path d="M28.125 12.4418V8.4375C28.125 7.94022 27.9275 7.46331 27.5758 7.11167C27.2242 6.76004 26.7473 6.5625 26.25 6.5625H3.75C3.25272 6.5625 2.77581 6.76004 2.42417 7.11167C2.07254 7.46331 1.875 7.94022 1.875 8.4375V12.4418C1.59042 12.6061 1.35401 12.8423 1.18948 13.1268C1.02494 13.4112 0.938043 13.7339 0.9375 14.0625V19.6875C0.9375 20.1848 1.13504 20.6617 1.48667 21.0133C1.83831 21.365 2.31522 21.5625 2.8125 21.5625H3.75V23.4375C3.75 23.6861 3.84877 23.9246 4.02459 24.1004C4.2004 24.2762 4.43886 24.375 4.6875 24.375C4.93614 24.375 5.1746 24.2762 5.35041 24.1004C5.52623 23.9246 5.625 23.6861 5.625 23.4375V21.5625H24.375V23.4375C24.375 23.6861 24.4738 23.9246 24.6496 24.1004C24.8254 24.2762 25.0639 24.375 25.3125 24.375C25.5611 24.375 25.7996 24.2762 25.9754 24.1004C26.1512 23.9246 26.25 23.6861 26.25 23.4375V21.5625H27.1875C27.6848 21.5625 28.1617 21.365 28.5133 21.0133C28.865 20.6617 29.0625 20.1848 29.0625 19.6875V14.0625C29.062 13.7339 28.9751 13.4112 28.8105 13.1268C28.646 12.8423 28.4096 12.6061 28.125 12.4418ZM26.25 12.1875H25.3125C24.8152 12.1875 24.3383 12.385 23.9867 12.7367C23.635 13.0883 23.4375 13.5652 23.4375 14.0625V15.9375H15.9375V8.4375H26.25V12.1875ZM14.0625 8.4375V15.9375H6.5625V14.0625C6.5625 13.5652 6.36496 13.0883 6.01333 12.7367C5.66169 12.385 5.18478 12.1875 4.6875 12.1875H3.75V8.4375H14.0625ZM27.1875 19.6875H2.8125V14.0625H4.6875V16.875C4.6875 17.1236 4.78627 17.3621 4.96209 17.5379C5.1379 17.7137 5.37636 17.8125 5.625 17.8125H24.375C24.6236 17.8125 24.8621 17.7137 25.0379 17.5379C25.2137 17.3621 25.3125 17.1236 25.3125 16.875V14.0625H27.1875V19.6875Z" fill="#430702"/>
</svg>
